<svg id="coke" xmlns="http://www.w3.org/2000/svg" viewBox="0 0 142.46 471.61">
  <defs>
    <style>
      .cls-1, .cls-2 {
        fill: none;
      }

      .cls-1, .cls-2, .cls-3 {
        stroke: #000;
        stroke-miterlimit: 10;
      }

      .cls-1 {
        stroke-width: 2.23px;
      }
    </style>
  </defs>
  <title>coke</title>
  <path class="cls-1" d="M14.33,468.33A273.21,273.21,0,0,0,74,474.67c49.67-.22,62.28-.39,68.33-9,1.31-1.86,3.32-5.4,4-17,.73-12.48-.07-34.49-12.66-62A124.68,124.68,0,0,1,136.33,353c4-18.33,12.67-60.67,8-79,0,0,0-65.33-5.66-88.33l2-6.67s-25-66.67-28.34-84.33-5-55-5-55,5.67,2,1.67-7-4.33-9.67-1-16S104.67,7,87,5.67,53,6.67,47,11s.67,8.67.67,8.67,0,7.66-3,11.66-5.67,10,.33,10c0,0,3.33,39.34-4.67,57S13,170.67,13.33,181l1.34,3s-8.34,57-5.34,84c0,0-2,8.67-1.66,13.67S20.67,364.33,18,371c0,0,3,20.67-4.67,36.33S2,463.67,14.33,468.33Z" transform="translate(-5.18 -4.18)"/>
  <line class="cls-2" x1="9.15" y1="179.82" x2="134.48" y2="181.16"/>
  <path class="cls-2" d="M8.33,267.33s74,8.34,135.67,2.67" transform="translate(-5.18 -4.18)"/>
  <path class="cls-2" d="M144,245.67l-12.33-1.34S117,244,84,258.67,11.67,257,11.67,257V239.67s34,20.33,71.33,14c0,0,27.25-6.42,41-15.42s20-9.5,20-9.5" transform="translate(-5.18 -4.18)"/>
  <g>
    <path class="cls-3" d="M43,218.4l5.35-2.53.71,1.49-.41.19a1.52,1.52,0,0,0-.5.31.26.26,0,0,0,0,.27,1.5,1.5,0,0,0,.53.48l2.52,1.67.42-3.18c0-.28.05-.43.06-.46a.59.59,0,0,0,0-.19.23.23,0,0,0-.18-.15,1,1,0,0,0-.44.13l-.55.26-.7-1.49,4.29-2,.7,1.49a1.34,1.34,0,0,0-1,1.35l-.89,5.54.9,1.92a2.27,2.27,0,0,0,.38.63.48.48,0,0,0,.33.12,2,2,0,0,0,.66-.22l.38-.18.71,1.49L51,227.8l-.7-1.49.28-.13a2.68,2.68,0,0,0,.68-.41.56.56,0,0,0,.12-.36,2.29,2.29,0,0,0-.25-.74l-.8-1.68-4.92-3a2.22,2.22,0,0,0-.9-.36,2.33,2.33,0,0,0-.77.27Z" transform="translate(-5.18 -4.18)"/>
    <path class="cls-3" d="M60.34,213.74a5.28,5.28,0,0,1,2.54-.57,4.15,4.15,0,0,1,2.18.7,4.38,4.38,0,0,1,1.51,1.83,4.33,4.33,0,0,1,.22,3.49,4.84,4.84,0,0,1-2.6,2.61,4.89,4.89,0,0,1-3.72.37A4.24,4.24,0,0,1,58,219.78a4.36,4.36,0,0,1-.47-2.33,4.19,4.19,0,0,1,.85-2.11A5.13,5.13,0,0,1,60.34,213.74Zm.83,1.68a1.51,1.51,0,0,0-.7.65,1.9,1.9,0,0,0-.24,1.05,3.74,3.74,0,0,0,.41,1.4,4.12,4.12,0,0,0,.84,1.25,1.86,1.86,0,0,0,1,.51,1.53,1.53,0,0,0,.92-.13,1.64,1.64,0,0,0,.9-1.12,3.06,3.06,0,0,0-.36-2,3.18,3.18,0,0,0-1.29-1.55A1.51,1.51,0,0,0,61.17,215.42Z" transform="translate(-5.18 -4.18)"/>
    <path class="cls-3" d="M65.75,211.41l3.57-1.78,2.37,5a2.55,2.55,0,0,0,.4.68.65.65,0,0,0,.38.18.83.83,0,0,0,.49-.1,2.24,2.24,0,0,0,.73-.57c.09-.1.3-.43.64-1l-1.42-3a1.66,1.66,0,0,0-.32-.51.48.48,0,0,0-.28-.13,1,1,0,0,0-.48.15l-.45.21-.7-1.49,3.58-1.78,2.62,5.52a1.88,1.88,0,0,0,.3.53.41.41,0,0,0,.24.08,1.87,1.87,0,0,0,.56-.2l.41-.2.71,1.49-3.35,1.7-.43-.91a6.2,6.2,0,0,1-1,1.4,4.56,4.56,0,0,1-1.26.9,3.28,3.28,0,0,1-1.11.3,2.41,2.41,0,0,1-1-.12,2.14,2.14,0,0,1-.8-.49,3.27,3.27,0,0,1-.66-1L68,213.14a2.08,2.08,0,0,0-.31-.53.38.38,0,0,0-.25-.09,1.58,1.58,0,0,0-.53.18l-.42.2Z" transform="translate(-5.18 -4.18)"/>
    <path class="cls-3" d="M78.64,207.77l-1.32-.54a12.82,12.82,0,0,0,.67-1.9,3,3,0,0,0,0-1.08,1.66,1.66,0,0,1-.22.3,1.15,1.15,0,0,1-.29.2,1.13,1.13,0,0,1-1,0,1.41,1.41,0,0,1-.76-.74,1.53,1.53,0,0,1-.07-1.24,1.62,1.62,0,0,1,.85-.91,1.78,1.78,0,0,1,1-.16,1.88,1.88,0,0,1,1,.4,2.55,2.55,0,0,1,.73.93,3.74,3.74,0,0,1,.26,2.22A7.93,7.93,0,0,1,78.64,207.77Z" transform="translate(-5.18 -4.18)"/>
    <path class="cls-3" d="M84.76,202.2l.53,1.11a5,5,0,0,1,.65-1.39,2.05,2.05,0,0,1,.76-.64,1.48,1.48,0,0,1,.76-.15,1.32,1.32,0,0,1,.71.28,1.66,1.66,0,0,1,.5.61,1.51,1.51,0,0,1,.09,1,1.2,1.2,0,0,1-.71.82l-.29.11a5.23,5.23,0,0,1-.58.08,1.31,1.31,0,0,0-.36.1,1.73,1.73,0,0,0-.54.57l1.42,3a1.4,1.4,0,0,0,.3.48.4.4,0,0,0,.27.08,2.23,2.23,0,0,0,.59-.22l.34-.16.71,1.49-4.76,2.25-.71-1.49.4-.18a2.52,2.52,0,0,0,.51-.3.41.41,0,0,0,.08-.24,1.55,1.55,0,0,0-.19-.54l-1.67-3.54-1.15.53-.7-1.48A8.5,8.5,0,0,0,84,202.54Z" transform="translate(-5.18 -4.18)"/>
    <path class="cls-3" d="M98,202.1l1.56.57a6.91,6.91,0,0,1-1.14,2.39,5.15,5.15,0,0,1-1.82,1.43,4.53,4.53,0,0,1-3.53.21,4.31,4.31,0,0,1-2.56-2.32,4.26,4.26,0,0,1,.39-4.44,4.85,4.85,0,0,1,1.92-1.54A4.52,4.52,0,0,1,94.3,198a3.88,3.88,0,0,1,1.41.11,3.6,3.6,0,0,1,1.24.65,5,5,0,0,1,1,1,9.78,9.78,0,0,1,.52,1l-5.19,2.45a2.54,2.54,0,0,0,1.32,1.32,2,2,0,0,0,1.66,0,2.67,2.67,0,0,0,1-.84A4.8,4.8,0,0,0,98,202.1Zm-2.59-1.5a2.05,2.05,0,0,0-.57-.62,1.25,1.25,0,0,0-.65-.21,1.27,1.27,0,0,0-.67.12,1.42,1.42,0,0,0-.55.46,1.37,1.37,0,0,0-.27.66,1.78,1.78,0,0,0,.1.83Z" transform="translate(-5.18 -4.18)"/>
    <path class="cls-3" d="M69.14,221.4l1.25,2.65,2.48-1.18.78,1.65-2.48,1.17,1.27,2.69a4.61,4.61,0,0,0,.64,1.12.93.93,0,0,0,.56.25,1.77,1.77,0,0,0,.89-.17,3.13,3.13,0,0,0,1.34-1.27l.78,1.65a6.48,6.48,0,0,1-1,1,5.88,5.88,0,0,1-1.12.69,4.55,4.55,0,0,1-1.36.41A2.88,2.88,0,0,1,72,232a2,2,0,0,1-.88-.46,3.37,3.37,0,0,1-.67-1l-1.74-3.67-1.15.54-.7-1.48a3.41,3.41,0,0,0,.78-1.07,3.08,3.08,0,0,0,.28-1.24,4.46,4.46,0,0,0-.26-1.5Z" transform="translate(-5.18 -4.18)"/>
    <path class="cls-3" d="M76.14,216.89l2,4.29a7.15,7.15,0,0,1,1-1.29,3.91,3.91,0,0,1,1-.73,3.08,3.08,0,0,1,1.46-.31,2.32,2.32,0,0,1,1.21.39,2.77,2.77,0,0,1,.87,1.13l1.52,3.22a2.72,2.72,0,0,0,.31.55.44.44,0,0,0,.33.11,2.49,2.49,0,0,0,.56-.22l.37-.18.7,1.49L83,227.49,82.33,226l.23-.11a1.12,1.12,0,0,0,.43-.27.43.43,0,0,0,.09-.26,2.42,2.42,0,0,0-.21-.56l-1.26-2.67a2.5,2.5,0,0,0-.4-.66.62.62,0,0,0-.37-.18.82.82,0,0,0-.47.09,2.42,2.42,0,0,0-.69.5,5.11,5.11,0,0,0-.71,1L80.42,226a2.32,2.32,0,0,0,.3.53.39.39,0,0,0,.26.09,1.5,1.5,0,0,0,.52-.17l.17-.08.7,1.49-4.48,2.12-.71-1.49.44-.21a1.62,1.62,0,0,0,.46-.28.36.36,0,0,0,.07-.24,1.5,1.5,0,0,0-.17-.5l-3.31-7-1.12.53-.71-1.49a8.72,8.72,0,0,0,1.34-.9,11.38,11.38,0,0,0,1.23-1.11Z" transform="translate(-5.18 -4.18)"/>
    <path class="cls-3" d="M94.21,218.71l1.56.57a6.91,6.91,0,0,1-1.14,2.39,5.15,5.15,0,0,1-1.82,1.43,4.53,4.53,0,0,1-3.53.21A4.36,4.36,0,0,1,86.71,221a4.44,4.44,0,0,1-.42-2.28,4.19,4.19,0,0,1,.82-2.16A4.85,4.85,0,0,1,89,215a4.45,4.45,0,0,1,1.51-.44,3.89,3.89,0,0,1,1.41.11,3.6,3.6,0,0,1,1.24.65,4.83,4.83,0,0,1,1,1,8.41,8.41,0,0,1,.52,1l-5.2,2.45a2.55,2.55,0,0,0,1.33,1.32,2,2,0,0,0,1.66,0,2.92,2.92,0,0,0,1-.85A5,5,0,0,0,94.21,218.71Zm-2.6-1.5a1.92,1.92,0,0,0-.56-.62,1.25,1.25,0,0,0-.65-.21,1.27,1.27,0,0,0-.67.12,1.42,1.42,0,0,0-.55.46,1.36,1.36,0,0,0-.27.67,1.74,1.74,0,0,0,.09.82Z" transform="translate(-5.18 -4.18)"/>
  </g>
  <g>
    <path class="cls-3" d="M68.83,234.22l2.54,3-1.2,1.05a5.74,5.74,0,0,0-2.43-1.07,3.59,3.59,0,0,0-2.13.31,1.88,1.88,0,0,0-.88.73.82.82,0,0,0-.09.76,1,1,0,0,0,.65.51,3.25,3.25,0,0,0,1.47,0l2.26-.37a5.49,5.49,0,0,1,3,.14,3,3,0,0,1,1.57,1.52,3.17,3.17,0,0,1,0,2.77A4.82,4.82,0,0,1,71.09,246a5.83,5.83,0,0,1-1.62.51,6.24,6.24,0,0,1-1.77,0l0,.9-1.11.52L64,244.28l1.23-1a5.38,5.38,0,0,0,2.49,1.32,4,4,0,0,0,2.66-.26,3,3,0,0,0,.86-.58,1.28,1.28,0,0,0,.36-.66.89.89,0,0,0-.06-.61,1,1,0,0,0-.79-.55,5.5,5.5,0,0,0-1.83.09l-2,.32a9.2,9.2,0,0,1-1.27.09,4.92,4.92,0,0,1-1.33-.15,2.77,2.77,0,0,1-1-.58,2.74,2.74,0,0,1-.76-1,3,3,0,0,1-.27-1.73,3.48,3.48,0,0,1,.84-1.77,5.24,5.24,0,0,1,1.82-1.4,4.89,4.89,0,0,1,2.75-.45l0-.66Z" transform="translate(-5.18 -4.18)"/>
    <path class="cls-3" d="M75.55,234.41l.39.82a7.94,7.94,0,0,1,1-1.28,3.07,3.07,0,0,1,.88-.61,2.94,2.94,0,0,1,2.57-.05,4.6,4.6,0,0,1,2.27,2.36,4.85,4.85,0,0,1,.48,3.11,3.49,3.49,0,0,1-2.84,2.76,3.21,3.21,0,0,1-1,0L80,243a2,2,0,0,0,.3.51.35.35,0,0,0,.24.08,2.42,2.42,0,0,0,.6-.23l.35-.16.67,1.43-4.59,2.18-.68-1.43.25-.12a3,3,0,0,0,.6-.33.37.37,0,0,0,.08-.25,1.54,1.54,0,0,0-.19-.56l-3.15-6.64-1.1.52-.68-1.44a11.66,11.66,0,0,0,1.24-.88,8.29,8.29,0,0,0,1-.93Zm1.38,2.18L78.08,239a2.41,2.41,0,0,0,.49.76.93.93,0,0,0,.56.21,1.24,1.24,0,0,0,.67-.13,1.33,1.33,0,0,0,.74-1,3.31,3.31,0,0,0-.41-1.88,3.2,3.2,0,0,0-1.09-1.4,1.11,1.11,0,0,0-1.09-.1A2.4,2.4,0,0,0,76.93,236.59Z" transform="translate(-5.18 -4.18)"/>
    <path class="cls-3" d="M88,232.27l-.26-.55a2.05,2.05,0,0,0-.41-.64.76.76,0,0,0-.44-.17,1.13,1.13,0,0,0-.59.14,1.22,1.22,0,0,0-.41.29,1,1,0,0,0-.21.36,2,2,0,0,0,0,.62,1.63,1.63,0,0,1-.16.88,1.28,1.28,0,0,1-1.48.59,1.06,1.06,0,0,1-.65-.59,1.47,1.47,0,0,1-.11-1,3.22,3.22,0,0,1,.84-1.43,5.52,5.52,0,0,1,1.69-1.2,4.5,4.5,0,0,1,1.92-.5,2.5,2.5,0,0,1,1.38.31,3.06,3.06,0,0,1,1,1.28l1.26,2.65a2.78,2.78,0,0,0,.35.61A.56.56,0,0,0,92,234a.77.77,0,0,0,.42-.07,2.07,2.07,0,0,0,.5-.39l.69,1.45a4.36,4.36,0,0,1-1.11.77,3,3,0,0,1-1.27.33,2.22,2.22,0,0,1-1.12-.28,7.05,7.05,0,0,1-1,1.32,3.91,3.91,0,0,1-1.07.76,2.7,2.7,0,0,1-2,.22A2.14,2.14,0,0,1,84.67,237a2,2,0,0,1-.21-1,2.38,2.38,0,0,1,.33-1,5.09,5.09,0,0,1,1.12-1.21A15.5,15.5,0,0,1,88,232.27Zm.58,1.23a8.91,8.91,0,0,0-1.23.93,1.39,1.39,0,0,0-.4.64.79.79,0,0,0,0,.53.78.78,0,0,0,.46.39,1,1,0,0,0,.7-.09,1.85,1.85,0,0,0,.5-.39,5.17,5.17,0,0,0,.55-.72Z" transform="translate(-5.18 -4.18)"/>
    <path class="cls-3" d="M94.16,225.56l.51,1.07a4.59,4.59,0,0,1,.63-1.33,2,2,0,0,1,.73-.63,1.45,1.45,0,0,1,.73-.14,1.36,1.36,0,0,1,.68.26,1.53,1.53,0,0,1,.48.59,1.4,1.4,0,0,1,.09,1,1.16,1.16,0,0,1-.68.79,1.19,1.19,0,0,1-.28.1,4,4,0,0,1-.55.09,1.17,1.17,0,0,0-.35.09,1.71,1.71,0,0,0-.52.55l1.37,2.9a1.63,1.63,0,0,0,.29.45.38.38,0,0,0,.26.08,2.29,2.29,0,0,0,.57-.21l.33-.16.68,1.43-4.58,2.18-.67-1.43.37-.18a2.05,2.05,0,0,0,.5-.29.35.35,0,0,0,.07-.23,1.63,1.63,0,0,0-.18-.52L93,228.61l-1.09.52-.68-1.42a8.59,8.59,0,0,0,2.21-1.82Z" transform="translate(-5.18 -4.18)"/>
    <path class="cls-3" d="M99.82,218.81l3.18,6.68.85-1.89a2.69,2.69,0,0,0,.15-.37.18.18,0,0,0-.18-.23,1.39,1.39,0,0,0-.45.15l-.28.14-.68-1.43,4.53-2.16.68,1.43a2.61,2.61,0,0,0-.64.39,4.79,4.79,0,0,0-.55.86l-.93,1.73,3.17,1.41a1.75,1.75,0,0,0,.73.21,2.39,2.39,0,0,0,.82-.27l.68,1.43-4.6,2.18-.68-1.43.26-.12a.87.87,0,0,0,.34-.23.18.18,0,0,0,0-.17,1.17,1.17,0,0,0-.44-.3l-1.37-.69-.6,1.13.19.4a1.16,1.16,0,0,0,.23.36.34.34,0,0,0,.23.09.76.76,0,0,0,.36-.1l.26-.12.68,1.43-4.25,2-.68-1.43.33-.17a1.76,1.76,0,0,0,.51-.31.38.38,0,0,0,.08-.27,2.48,2.48,0,0,0-.27-.66L98.42,222l-1.08.52-.69-1.45a9.67,9.67,0,0,0,2.45-1.92Z" transform="translate(-5.18 -4.18)"/>
  </g>
  <ellipse class="cls-3" cx="109.93" cy="219.29" rx="2.26" ry="1.57" transform="translate(-138.95 243.12) rotate(-69.93)"/>
  <ellipse class="cls-3" cx="115.4" cy="219.42" rx="2.26" ry="1.57" transform="translate(-135.48 248.34) rotate(-69.93)"/>
  <polyline class="cls-2" points="106.06 213.73 106.32 207.57 111.6 207.57 111.47 214.61"/>
</svg>
