<?xml version="1.0" encoding="utf-8"?>
<!-- Generator: Adobe Illustrator 22.0.1, SVG Export Plug-In . SVG Version: 6.00 Build 0)  -->
<svg version="1.1" xmlns="http://www.w3.org/2000/svg" xmlns:xlink="http://www.w3.org/1999/xlink" x="0px" y="0px"
	 viewBox="0 0 112 210" style="enable-background:new 0 0 112 210;" xml:space="preserve">
<g id="phoneBkg_1_">
	<g id="phoneBkg">
		<rect id="bkg" x="7.8" y="23.9" style="fill:#ABCBE2;" width="98.1" height="156.7"/>
	</g>
	<rect id="line" x="6" y="165" style="fill:#A2C1D1;" width="101.8" height="1.3"/>
</g>
<g id="social2">
	<g id="search">
		<circle style="fill:none;stroke:#A2C1D1;stroke-miterlimit:10;" cx="35.2" cy="173.7" r="3.5"/>
		<line style="fill:none;stroke:#A2C1D1;stroke-miterlimit:10;" x1="38.2" y1="175.8" x2="41.5" y2="178.6"/>
	</g>
	<g id="instaIcon">
		<g id="img">
			<g>
				<path style="fill:none;stroke:#A2C1D1;stroke-miterlimit:10;" d="M20.1,28.8L20.1,28.8c0.4-0.4,0.9-0.7,1.5-0.7h3.8
					c0.5,0,1,0.2,1.4,0.6l0.3,0.3c0.4,0.4,0.9,0.6,1.4,0.6H30c1.1,0,2,0.9,2,2v9c0,1.1-0.9,2-2,2H17.2c-1.1,0-2-0.9-2-2v-9.1
					c0-1.1,0.9-2,2.1-2l1.2,0.1C19.1,29.5,19.7,29.2,20.1,28.8z"/>
				<circle style="fill:none;stroke:#A2C1D1;stroke-miterlimit:10;" cx="23.5" cy="36" r="3.6"/>
			</g>
		</g>
	</g>
	<g id="likes">
		<g>
			<path style="fill:none;stroke:#A2C1D1;stroke-miterlimit:10;" d="M80,171.5c0.5-1.1,1.5-1.9,2.5-1.9c1,0,1.8,0.7,2.1,1.4
				c0.8,1.6-1.5,4.3-4.7,6.9c-2.9-2.6-5.1-3.4-4.8-5.7c0-0.2,0-0.6,0.2-1.1c0.3-1.1,1.4-1.9,2.5-1.8c0.5,0,1.1,0.3,1.4,0.9
				c0.8,1.5,0.8,1.5,0.8,1.5L80,171.5z"/>
		</g>
	</g>
	<g id="add">
		<g id="addImg">
			<g>
				<path style="fill:none;stroke:#A2C1D1;stroke-miterlimit:10;" d="M61.2,178.2h-3.9c-1.7,0-3.1-1.4-3.1-3.1v-2.8
					c0-1.7,1.4-3.1,3.1-3.1h3.9c1.7,0,3.1,1.4,3.1,3.1v2.8C64.3,176.8,62.9,178.2,61.2,178.2z"/>
				<line style="fill:none;stroke:#A2C1D1;stroke-miterlimit:10;" x1="59.3" y1="170.9" x2="59.3" y2="176.5"/>
				<line style="fill:none;stroke:#A2C1D1;stroke-miterlimit:10;" x1="56.2" y1="173.7" x2="62.5" y2="173.7"/>
			</g>
		</g>
	</g>
</g>
<g id="social1">
	<circle id="profile" style="fill:#A2C1D1;" cx="98.7" cy="173.7" r="4"/>
	<g id="home">
		<path style="fill:#A2C1D1;" d="M17.1,177.8h3v-5.1l-4.1-3.2l-4,2.9v5.2h2.7l0.1-3c0,0,1.2-1.5,2.3,0L17.1,177.8z"/>
	</g>
</g>
<g id="img_1_">
	<rect x="5.8" y="50.3" style="fill:#A2C1D1;" width="101" height="87.3"/>
</g>
<g id="phoneCase">
	<path id="phone" style="fill:#F8F7F8;" d="M105,2.2H8.7c-4.4,0-7.9,3.6-7.9,7.9V198c0,4.4,3.6,7.9,7.9,7.9H105
		c4.4,0,7.9-3.6,7.9-7.9V10.1C112.9,5.7,109.3,2.2,105,2.2z M105.9,180.7H7.8V23.9h98.1V180.7z"/>
	<g id="details">
		<g>
			<path style="fill:#F0F0F0;" d="M47.3,13.7c0,1.1-0.9,2-2,2c-1.1,0-2-0.9-2-2c0-1.1,0.9-2,2-2C46.4,11.7,47.3,12.6,47.3,13.7z"/>
			<g>
				<path style="fill:#F0F0F0;" d="M70.4,14.7c0,0.3-0.3,0.6-0.6,0.6H52.1c-0.3,0-0.6-0.3-0.6-0.6v-2c0-0.3,0.3-0.6,0.6-0.6h17.7
					c0.3,0,0.6,0.3,0.6,0.6V14.7z"/>
			</g>
			<path style="fill:#F0F0F0;" d="M63.6,193.4c0,3.7-3,6.7-6.7,6.7c-3.7,0-6.7-3-6.7-6.7c0-3.7,3-6.7,6.7-6.7
				C60.6,186.7,63.6,189.7,63.6,193.4z"/>
		</g>
	</g>
	<g id="highlight_1_">
		<path id="highlight" style="opacity:0.1;fill:#FFFFFF;" d="M8.7,2.2c-4.4,0-7.9,3.6-7.9,7.9V198c0,4.4,3.6,7.9,7.9,7.9h7L99.3,2.2
			H8.7z"/>
	</g>
</g>
</svg>
