<svg id="Layer_2" data-name="Layer 2" xmlns="http://www.w3.org/2000/svg" viewBox="0 0 180.42 188.33">
  <title>kylie</title>
  <path d="M46.23,157.66a26.42,26.42,0,0,1,5-2.34,18,18,0,0,1,5.46-1,11.37,11.37,0,0,1,2.83.31,20,20,0,0,0,2.62.54,11.58,11.58,0,0,0,2.63,0,5.39,5.39,0,0,0,2.33-.75l.08,0h0a14.18,14.18,0,0,1,6.56-.73,20.53,20.53,0,0,1,3.22.6c1,.27,2.1.69,3.07,1a15.36,15.36,0,0,0,6.17.91,17.2,17.2,0,0,0,6.17-1.39,16.15,16.15,0,0,1-6.13,1.91,16.32,16.32,0,0,1-6.47-.66c-1.07-.33-2-.71-3-1a19.24,19.24,0,0,0-3.08-.52,14.72,14.72,0,0,0-6.08.68l.11-.06a6,6,0,0,1-2.85.91A12.23,12.23,0,0,1,62,156a20.52,20.52,0,0,1-2.74-.6,10.29,10.29,0,0,0-2.6-.4,17.69,17.69,0,0,0-5.33.74A30.07,30.07,0,0,0,46.23,157.66Z" transform="translate(-2.86 -4.67)"/>
  <path d="M49.77,161.5a32.36,32.36,0,0,0,8.57,5.21,23.68,23.68,0,0,0,9.7,1.8,19.83,19.83,0,0,0,4.89-.74c.8-.19,1.57-.5,2.36-.77s1.54-.62,2.27-1a37.21,37.21,0,0,0,8.18-5.83c-.57.62-1.14,1.25-1.74,1.86s-1.22,1.18-1.88,1.73-1.31,1.08-2,1.55L79,166l-1.11.65a20.72,20.72,0,0,1-4.74,2,20,20,0,0,1-5.1.83,22.21,22.21,0,0,1-10-2.1A26.35,26.35,0,0,1,49.77,161.5Z" transform="translate(-2.86 -4.67)"/>
  <path d="M45.83,153.94a51.83,51.83,0,0,1,4-5,25.68,25.68,0,0,1,4.81-4.3,5.5,5.5,0,0,1,3.22-1.07,3.65,3.65,0,0,1,1.65.62,4.12,4.12,0,0,0,.67.32,4.61,4.61,0,0,0,.71.25,8.47,8.47,0,0,0,5.86-.52l0,0a7.46,7.46,0,0,1,6.48-.35,10.5,10.5,0,0,1,2.75,1.76L77,146.76a13.63,13.63,0,0,0,1.09,1.06,21.06,21.06,0,0,0,5.15,3.36,29.16,29.16,0,0,0,5.84,2.14,26,26,0,0,1-6-1.69,21.78,21.78,0,0,1-5.45-3.23c-.83-.66-1.58-1.45-2.3-2.12a9.85,9.85,0,0,0-2.52-1.57,7,7,0,0,0-2.86-.46,6.58,6.58,0,0,0-2.73.81l0,0h0a9.25,9.25,0,0,1-6.58.51,5.32,5.32,0,0,1-.79-.29,5.39,5.39,0,0,1-.76-.38,2.85,2.85,0,0,0-1.28-.53,5.26,5.26,0,0,0-2.75.87,25.88,25.88,0,0,0-4.86,4C48.61,150.72,47.21,152.31,45.83,153.94Z" transform="translate(-2.86 -4.67)"/>
  <path d="M37.33,77.52a26.66,26.66,0,0,1,9.13,1,14.8,14.8,0,0,1,4.18,2.06,9.41,9.41,0,0,1,3,3.62,9.72,9.72,0,0,1,.74,2.27c.13.76.29,1.52.37,2.29a41.89,41.89,0,0,1,.37,4.62,53.78,53.78,0,0,1-.63,9.23,120.84,120.84,0,0,1-4.59,17.83l-1.45,4.36c-.23.72-.48,1.45-.67,2.18a5,5,0,0,0-.22,2.14A5.08,5.08,0,0,0,48.65,131a8,8,0,0,0,1.51,1.66,4.32,4.32,0,0,0,4.27.66,4.28,4.28,0,0,1-2.26.39,4.66,4.66,0,0,1-2.17-.83,8.27,8.27,0,0,1-1.64-1.65,5.38,5.38,0,0,1-1.26-2,5.17,5.17,0,0,1,.16-2.39c.17-.76.39-1.49.61-2.23l1.31-4.4a130.85,130.85,0,0,0,4.34-17.75,53,53,0,0,0,.71-9.06,40.24,40.24,0,0,0-.32-4.53A16,16,0,0,0,53,84.54a8.56,8.56,0,0,0-2.7-3.42,14.35,14.35,0,0,0-4-2.11A28,28,0,0,0,37.33,77.52Z" transform="translate(-2.86 -4.67)"/>
  <path d="M51,129a1,1,0,0,1,.52-.75,1.78,1.78,0,0,1,1-.16,5.3,5.3,0,0,1,1.77.55,29.92,29.92,0,0,1,3,1.92c1,.66,1.91,1.31,2.89,1.88a8.16,8.16,0,0,0,1.52.73,1.91,1.91,0,0,0,1.62,0,1.93,1.93,0,0,1-1.73.49,6.71,6.71,0,0,1-1.76-.51,17.88,17.88,0,0,1-3.11-1.75c-1-.67-1.87-1.44-2.79-2.07a6.19,6.19,0,0,0-1.47-.75A1.09,1.09,0,0,0,51,129Z" transform="translate(-2.86 -4.67)"/>
  <path d="M66.81,129.46a5.16,5.16,0,0,1,3.89-3.35,5.28,5.28,0,0,1,2.68.23,7.29,7.29,0,0,1,1.2.56,9,9,0,0,1,1,.8c-.43-.1-.82-.24-1.22-.35s-.79-.21-1.19-.25a6.64,6.64,0,0,0-2.31,0A7.89,7.89,0,0,0,66.81,129.46Z" transform="translate(-2.86 -4.67)"/>
  <path d="M74.2,131.71a28.48,28.48,0,0,0,2.47-1.44,14.22,14.22,0,0,0,2.19-1.7,6.91,6.91,0,0,0,1.59-2.12,4.93,4.93,0,0,0,.34-2.53l0,.11c-.29-.64-.57-1.29-.84-1.94s-.53-1.3-.75-2c.43.57.8,1.16,1.2,1.74s.76,1.19,1.11,1.8l0,0v.06a5.11,5.11,0,0,1-.23,3.09,6.5,6.5,0,0,1-1.86,2.42A10.21,10.21,0,0,1,77,130.83,11.91,11.91,0,0,1,74.2,131.71Z" transform="translate(-2.86 -4.67)"/>
  <path d="M79.37,5.57a25.2,25.2,0,0,0-12.79.09,25.91,25.91,0,0,0-11.1,6.24,38,38,0,0,0-7.65,10.27,61.67,61.67,0,0,0-4.66,12C41,42.47,39.34,51,37.7,59.45L33,84.93c-3.21,17-6.66,33.94-11.37,50.59A248,248,0,0,1,2.86,183.79l2.78-5.85L7,175l1.25-3,2.5-6L13,160l1.14-3c.36-1,.68-2,1-3.06l2-6.15c.64-2.06,1.23-4.13,1.85-6.2s1.24-4.13,1.77-6.23l1.66-6.25,1.55-6.29c1.06-4.18,1.93-8.41,2.89-12.62q2.68-12.66,5-25.41L36.8,59.27c1.69-8.48,3.3-17,5.63-25.33a62.67,62.67,0,0,1,4.85-12.07,38.31,38.31,0,0,1,7.87-10.33A26.27,26.27,0,0,1,66.52,5.43,25.32,25.32,0,0,1,79.37,5.57Z" transform="translate(-2.86 -4.67)"/>
  <path d="M81.41,90.17a10.67,10.67,0,0,1,5.48-6.57A42.25,42.25,0,0,1,95,80.37a16,16,0,0,1,8.81,0,20,20,0,0,1,7.62,4.38l-.14-.07a5.8,5.8,0,0,0,2.59,0,7.39,7.39,0,0,0,2.47-1,10.28,10.28,0,0,0,2.1-1.75c.31-.34.58-.7.88-1.06l.81-1.14-.68,1.23c-.27.38-.53.77-.82,1.14a10.83,10.83,0,0,1-2,2,8,8,0,0,1-2.6,1.23,6.5,6.5,0,0,1-3,.09l-.06,0-.07-.06a20.82,20.82,0,0,0-7.39-4,16.19,16.19,0,0,0-8.32,0,37.86,37.86,0,0,0-4.08,1.3c-1.35.51-2.73,1-4,1.59A11.29,11.29,0,0,0,81.41,90.17Z" transform="translate(-2.86 -4.67)"/>
  <path d="M82.76,81.52a27.23,27.23,0,0,1,5.88-6.2,16.4,16.4,0,0,1,7.92-3.49,13.07,13.07,0,0,1,4.38.42,34.64,34.64,0,0,1,4.1,1.26,23.48,23.48,0,0,1,7.47,4.14,22.35,22.35,0,0,0-3.75-2,35.37,35.37,0,0,0-4-1.44c-1.35-.4-2.7-.78-4.08-1.07a12.48,12.48,0,0,0-4.06-.35,17.45,17.45,0,0,0-7.57,3.12,30.61,30.61,0,0,0-3.31,2.61A36.79,36.79,0,0,0,82.76,81.52Z" transform="translate(-2.86 -4.67)"/>
  <path d="M92.54,81.94a6.35,6.35,0,0,0,.38,5A6.59,6.59,0,0,0,97,89.62a7.45,7.45,0,0,0,2.47.28,4.69,4.69,0,0,0,2.31-.66,7.36,7.36,0,0,0,3-3.85l0,0a2.85,2.85,0,0,0,.2-1.08,5.25,5.25,0,0,0-.51-2.32,8.8,8.8,0,0,0-.59-1.09,7.22,7.22,0,0,1,.77,1,6.11,6.11,0,0,1,.58,1.14,4.58,4.58,0,0,1,.28,1.27,3.6,3.6,0,0,1-.15,1.36v0a7.4,7.4,0,0,1-3.16,4.51,6.76,6.76,0,0,1-5.53.49,12.12,12.12,0,0,1-1.31-.49,12.33,12.33,0,0,1-1.23-.68,5.93,5.93,0,0,1-1.86-2.12A6,6,0,0,1,92.54,81.94Z" transform="translate(-2.86 -4.67)"/>
  <path d="M84.78,90.13a1.54,1.54,0,0,1,1.54-.88,5.78,5.78,0,0,1,1.84.36,18.7,18.7,0,0,0,3.4,1.16,32,32,0,0,0,7.07,1,16.9,16.9,0,0,0,6.92-1.15,9.8,9.8,0,0,0,5-4.81A9.33,9.33,0,0,1,108.84,89a9.86,9.86,0,0,1-3,2.28,15.51,15.51,0,0,1-7.27,1.45,25.9,25.9,0,0,1-7.26-1.25A19.23,19.23,0,0,1,88,90.06a5.24,5.24,0,0,0-1.66-.55A1.48,1.48,0,0,0,84.78,90.13Z" transform="translate(-2.86 -4.67)"/>
  <path d="M87.22,7A20.1,20.1,0,0,1,95,7a27.34,27.34,0,0,1,7.33,2.58,36.13,36.13,0,0,1,11.56,10.31c.79,1,1.46,2.15,2.2,3.22.35.55.74,1.07,1.06,1.64l.93,1.71c.61,1.15,1.26,2.28,1.83,3.45l1.56,3.57a120.13,120.13,0,0,1,5,14.73,255.57,255.57,0,0,1,6.27,30.49c1.54,10.26,2.65,20.59,3.47,30.93.39,5.17.74,10.35,1,15.53l.16,3.9a34.37,34.37,0,0,1,0,3.93,54.89,54.89,0,0,1-1.09,7.76A58.39,58.39,0,0,1,131,155.48a55.46,55.46,0,0,1-9.09,12.72,56.82,56.82,0,0,1-12.26,9.68l-1.69,1-1.73.91c-1.16.61-2.33,1.16-3.51,1.71l-3.52,1.66-3.55,1.59c-4.76,2.08-9.57,4.07-14.52,5.67a69.94,69.94,0,0,1-7.55,2,29.6,29.6,0,0,1-3.89.54,14.52,14.52,0,0,1-2,0,5.91,5.91,0,0,1-1-.12,3.4,3.4,0,0,1-1-.34l.23.05a6,6,0,0,1-2.37-.5,15.45,15.45,0,0,1-2.1-1,31.81,31.81,0,0,1-3.87-2.48,71.83,71.83,0,0,1-7-5.9,103.55,103.55,0,0,1-12.24-13.56,126.43,126.43,0,0,1-9.77-15.42,141,141,0,0,1-7.64-16.57,140.07,140.07,0,0,0,7.83,16.46,128.29,128.29,0,0,0,9.93,15.26,107.56,107.56,0,0,0,12.27,13.42,72.82,72.82,0,0,0,7,5.83,33.2,33.2,0,0,0,3.82,2.42,15.53,15.53,0,0,0,2,.94,6.21,6.21,0,0,0,2,.46h.11L66,192a5,5,0,0,0,1.73.34,13.39,13.39,0,0,0,1.9,0,30.79,30.79,0,0,0,3.8-.55,69.91,69.91,0,0,0,7.47-2A154.76,154.76,0,0,0,95.35,184l3.53-1.6,3.51-1.67c1.17-.56,2.34-1.1,3.47-1.72l1.71-.89,1.67-1a56.23,56.23,0,0,0,12-9.58A54.34,54.34,0,0,0,130.16,155a60.11,60.11,0,0,0,5.13-14.49,54.79,54.79,0,0,0,1.1-7.63,30.71,30.71,0,0,0,0-3.84l-.14-3.88c-.22-5.17-.54-10.34-.91-15.51-.78-10.33-1.85-20.64-3.34-30.89a256.1,256.1,0,0,0-6.12-30.43c-2.77-9.94-6.37-19.81-12.37-28.26A36,36,0,0,0,102.19,9.74a27.2,27.2,0,0,0-7.25-2.65A20.06,20.06,0,0,0,87.22,7Z" transform="translate(-2.86 -4.67)"/>
  <path d="M166,38.3c1.53,8.37,3.05,16.73,4.5,25.11l4.35,25.13,4.26,25.14,4.14,25.17v.08c-.15,3.85-.44,7.67-.79,11.5s-.79,7.63-1.3,11.44-1.14,7.59-1.85,11.36-1.57,7.51-2.54,11.22c.84-3.75,1.61-7.5,2.22-11.28s1.16-7.57,1.61-11.38c.91-7.6,1.5-15.25,1.78-22.88V139l-4.27-25.14L174,88.68l-4.07-25.17C168.59,55.11,167.31,46.71,166,38.3Z" transform="translate(-2.86 -4.67)"/>
  <path d="M73.76,74.89c3.93-2.37,8-4.58,12-6.7,2-1,4.12-2,6.23-3a59,59,0,0,1,6.45-2.51,19.35,19.35,0,0,1,3.42-.8,23.94,23.94,0,0,1,3.51.07,52.19,52.19,0,0,1,6.9.76,23,23,0,0,1,6.59,2.37,22.75,22.75,0,0,1,5.49,4.36l-.85.24a6.53,6.53,0,0,0-.57-3.27,10.11,10.11,0,0,0-2-2.85,19.16,19.16,0,0,0-6-3.82,31.24,31.24,0,0,0-6.91-2,13.4,13.4,0,0,0-1.79-.18c-.6,0-1.2-.1-1.8-.1l-1.81.07a13.76,13.76,0,0,0-1.81.12A57.71,57.71,0,0,0,86.8,61.21,93.4,93.4,0,0,0,73.54,67.4a87.42,87.42,0,0,1,13.08-6.66,58.26,58.26,0,0,1,14.19-3.87,14.28,14.28,0,0,1,1.84-.16l1.86-.09c.62,0,1.24.06,1.86.09a11.47,11.47,0,0,1,1.85.17,27.42,27.42,0,0,1,3.64.81c.59.19,1.19.35,1.77.56l1.73.67a20,20,0,0,1,6.32,4,8.61,8.61,0,0,1,2.84,7l-.12,1-.73-.79a21.42,21.42,0,0,0-5.22-4.21,22,22,0,0,0-6.31-2.31,49.2,49.2,0,0,0-6.78-.78,25.85,25.85,0,0,0-3.37-.12,18.4,18.4,0,0,0-3.29.7A92.85,92.85,0,0,0,86,68.62C81.88,70.59,77.8,72.71,73.76,74.89Z" transform="translate(-2.86 -4.67)"/>
</svg>
