<?xml version="1.0" encoding="utf-8"?>
<!-- Generator: Adobe Illustrator 22.0.1, SVG Export Plug-In . SVG Version: 6.00 Build 0)  -->
<svg version="1.1" xmlns="http://www.w3.org/2000/svg" xmlns:xlink="http://www.w3.org/1999/xlink" x="0px" y="0px"
	 viewBox="0 0 168.5 167.5" style="enable-background:new 0 0 168.5 167.5;" xml:space="preserve">
<style type="text/css">
	.st0{fill:#D16666;stroke:#FFFFFF;stroke-miterlimit:10;}
</style>
<g id="_x33_5">
	<path id="_x33_5_x5F_44_2_" class="st0" d="M84.1,83.9L26,30.9C12.9,45,5,63.9,5,84.6c0,5.5,0.6,10.9,1.6,16l17.7-3.7L84.1,83.9z"
		/>
</g>
<g id="_x31_3">
	<path id="_x31_3_x5F_17" class="st0" d="M87.3,78.3l31.7-65c-10.2-5-21.6-7.8-33.7-8L84,84.3L87.3,78.3z"/>
</g>
<g id="_x35_5_1_">
	<path id="_x35_5_3_" class="st0" d="M84,83.5l0.6,0.4l0,0l0,0l0.7-78.5c-0.3,0-0.7,0-1,0c-8.4,0-16.5,1.3-24.1,3.8l15.1,47.3
		L84,83.5z"/>
</g>
<g id="_x34_5">
	<path id="_x34_5_x5F_54" class="st0" d="M75.3,56.3L60.2,9c-13.1,4.2-24.6,11.6-33.8,21.4l57.8,53.4L75.3,56.3z"/>
</g>
<g id="_x32_5">
	<path id="_x32_5_x5F_34_2_" class="st0" d="M84.1,83.9l-59.8,13l-17.7,3.7C14,136.8,46,164,84.3,164c18.9,0,36.2-6.6,49.8-17.6
		L110,116.7L84.1,83.9z"/>
</g>
<g id="_x31_8_1_">
	<path id="_x31_8_x5F_24" class="st0" d="M163.6,84.6c0-31.4-18.2-58.5-44.6-71.4l-31.7,65l-2.7,5.8l25.3,32.6l24.1,29.6
		C152.1,131.8,163.6,109.6,163.6,84.6z"/>
</g>
</svg>
