<svg xmlns="http://www.w3.org/2000/svg" viewBox="0 0 177.04 226.67">
  <defs>
    <style>
      .cls-1 {
        fill: #fff;
      }
    </style>
  </defs>
  <title>skull2</title>
  <g id="eyes">
    <ellipse class="cls-1" cx="88.96" cy="95.75" rx="14.58" ry="13.69"/>
    <ellipse class="cls-1" cx="26.63" cy="89.6" rx="13.92" ry="13.06"/>
    <circle cx="91.92" cy="93.68" r="7.12"/>
    <circle cx="28.67" cy="86.43" r="7.12"/>
  </g>
  <g id="skull">
    <g>
      <path class="cls-1" d="M45.4,181a18.55,18.55,0,0,1-3.74-.71,8.89,8.89,0,0,1-2.07-.84s0,0,0,.05A33.08,33.08,0,0,0,41.23,184,6.34,6.34,0,0,0,45,186.91l1.17-3.06a.41.41,0,0,1,.16-.22c-.26-.73-.5-1.46-.73-2.19a.41.41,0,0,1,.09-.44Z" transform="translate(-9.96 -4.94)"/>
      <path class="cls-1" d="M35.68,167.38c-.31,0-2.18-.79-2.34-.24a.46.46,0,0,1-.49.35A28.81,28.81,0,0,0,29.6,173c-.11.25-.21.52-.32.8a.46.46,0,0,1,.12.32,5.57,5.57,0,0,0,.69,3.55,4.51,4.51,0,0,0,3,1.44,3.76,3.76,0,0,0,2.62-.32c1.12-.76,1-2.13,1.18-3.26.38-2.08,2.15-4,2-6.13C38.86,167.46,37.18,167.52,35.68,167.38Z" transform="translate(-9.96 -4.94)"/>
      <path class="cls-1" d="M38.56,180a2.53,2.53,0,0,0-1.43-.32.37.37,0,0,1-.23,0l-.37.09a.53.53,0,0,1-.31,0,3.73,3.73,0,0,1-1.33.48c.45,1.34.78,3.22,1.82,4.24a8.7,8.7,0,0,0,2,1.14c.84.47,1.3.49,2-.25l.13-.1A20.49,20.49,0,0,1,38.76,180,.47.47,0,0,1,38.56,180Z" transform="translate(-9.96 -4.94)"/>
      <path class="cls-1" d="M25.1,177l-.62-.1c-.53-.05-.92.07-1.36-.34-.9-.83-.65-3-.6-4.15a7.9,7.9,0,0,0-.06,3.2C22.8,176.89,24,177.12,25.1,177Z" transform="translate(-9.96 -4.94)"/>
      <path class="cls-1" d="M33.92,180.21a8.08,8.08,0,0,1-1-.09,8.25,8.25,0,0,1-2-.54c.27,1.18.52,2.37.87,3.52a4.14,4.14,0,0,0,1,1.93,2.94,2.94,0,0,0,1,.6,2,2,0,0,0,1.78-.5.46.46,0,0,1,.24-.2c-1.09-1.21-1.47-3-2-4.53A.43.43,0,0,1,33.92,180.21Z" transform="translate(-9.96 -4.94)"/>
      <path class="cls-1" d="M28.07,164.72A5.24,5.24,0,0,0,25,167c-1.43,2.13-1.54,4.76-1.41,7.24.05,1,.18,1.38,1.23,1.74a2.64,2.64,0,0,0,2.69-.62,10.64,10.64,0,0,0,1.29-2.82A28.94,28.94,0,0,1,32,166.94a.45.45,0,0,1,0-.23C32.49,164.76,29.25,164.45,28.07,164.72Z" transform="translate(-9.96 -4.94)"/>
      <path class="cls-1" d="M67,185.75a7.78,7.78,0,0,0,2.34,2.6c.76.48,1.8.62,2.29-.49a10,10,0,0,0,.28-1.11c.59-1.81,1.65-3.41,1.57-5.36a8.28,8.28,0,0,1-2.4.54,3.34,3.34,0,0,1-2.86-1.15.53.53,0,0,1-.32.39c-.28,1.5-.57,3-1,4.48Z" transform="translate(-9.96 -4.94)"/>
      <polygon class="cls-1" points="57.08 175.4 57.09 175.4 57.09 175.4 57.08 175.4"/>
      <path class="cls-1" d="M88.85,181.47v0h0Z" transform="translate(-9.96 -4.94)"/>
      <path class="cls-1" d="M63.66,187.62a2.45,2.45,0,0,0,2-1.4,10,10,0,0,0,.58-2.1c.2-.82.37-1.66.53-2.49a.49.49,0,0,1-.12-.13l-.16-.25-.15-.07a.39.39,0,0,1-.23-.32c-1.79.89-4,1.19-5.57.39a25.85,25.85,0,0,1-.89,4c.55.66.21,1.58.8,2.26S62.71,187.81,63.66,187.62Z" transform="translate(-9.96 -4.94)"/>
      <path class="cls-1" d="M73.63,186.88c.21,1.38,2.75,2.3,3.5.8.38-.77.59-1.67,1-2.46A14.91,14.91,0,0,0,79.4,182a4.13,4.13,0,0,1-.14-.42,2.49,2.49,0,0,1-1.42,1.27c-1.23.36-2.49-.79-3.39-1.57h0a10.57,10.57,0,0,1-1.17,4.56C73.56,186.13,73.56,186.44,73.63,186.88Z" transform="translate(-9.96 -4.94)"/>
      <path class="cls-1" d="M84.24,187.06c-.16.47-.28,1-.49,1.56.85,1,2.12,1.74,3.37.86a5.23,5.23,0,0,0,1.51-2.54c.4-1.06,1.31-3,1.28-4.35a9.74,9.74,0,0,0-1.08,0,.46.46,0,0,1-.36-.15l0,0c0,.05-.05.09-.07.14-.34.6-.72,1-1.42.94-.37,0-.68-.39-1-.47a2.38,2.38,0,0,0-.39,0,.48.48,0,0,1,0,.29Z" transform="translate(-9.96 -4.94)"/>
      <path class="cls-1" d="M54,181h-.1c-.18,2.1-.79,8.14,2.57,7.45,1.53-.31,1.93-2.36,2.33-3.63a24,24,0,0,0,.88-4.1.83.83,0,0,1,0-.15,3.51,3.51,0,0,1-.57-.85C58.22,181.45,56.07,181.07,54,181Z" transform="translate(-9.96 -4.94)"/>
      <path class="cls-1" d="M184.74,57.84c-4.88-16.15-16.51-25.51-24.29-31.77-6.73-5.41-26-20.49-54.92-21.11C83.69,4.5,58.17,12.34,44.47,28.57,32.87,42.31,29,53.53,29,53.53a95.89,95.89,0,0,1-5.45,13.39c-2.28,4.55-3.8,8.84-6.13,10.44-1.19.83-1.1,3.78-1.1,3.78a90.52,90.52,0,0,1,.51,10.55,72.86,72.86,0,0,1-1.11,13c-.55,3-1.08,4.67-4.51,15.58,0,0-1.45,4.08-1.28,11.74s3.15,7.75,3.15,7.75a18.82,18.82,0,0,1,9.62,2.64c4.94,2.89,3.91,10.21,4.26,13.28a6.3,6.3,0,0,1-1.79,5L25,165.41a5.93,5.93,0,0,1,1.91-1.32c1.81-.79,5.84-.41,6.15,1.95a2,2,0,0,1,1.38-.06,20.86,20.86,0,0,0,2.94.44,2.81,2.81,0,0,1,1.44.58,2.94,2.94,0,0,1,1.11,1.86,2.43,2.43,0,0,1,1.19-.53.51.51,0,0,1,.61.34.49.49,0,0,1-.35.6,1.72,1.72,0,0,0-1.08.59.41.41,0,0,1-.36.16c-.26,2-1.72,4.29-2.06,6a.52.52,0,0,1,.1.18,5.49,5.49,0,0,0,4,3.15c1.87.54,4.9,1.21,5.24-1.52.3-2.46,1.28-7.05-1-8.72-.51-.37,0-1.22.49-.85a4.07,4.07,0,0,1,1.43,1.81c.81-.92,2.88-2,3.82-.66,1.1,1.49-1.5,5-1.86,6.36-.48,1.88.1,3.74,2.18,4.17a13.47,13.47,0,0,0,4.65.16c2.26-.52,1.87-3.12,1.81-4.85s0-3.79-.73-5.37c-.26-.57.58-1.07.84-.5a11.87,11.87,0,0,1,.78,4.34,20.24,20.24,0,0,1,0,4.92.46.46,0,0,1,.37.34c1.08,3.76,9.18.95,8.06-2.65-.3-1-1.06-1.71-1.44-2.64-.5-1.18,0-3.52-1.44-4.06-.58-.22-.33-1.17.26-1a2.7,2.7,0,0,1,1.81,2.64,3.29,3.29,0,0,1,2.53-1.14.49.49,0,0,1,0,1,2.29,2.29,0,0,0-2,1.06.43.43,0,0,1-.4.22,4.54,4.54,0,0,0,.48,1.53c.9,1.61,1.92,3,.85,4.81a4.07,4.07,0,0,1-.44.61c1.07,1,2,1.81,3.62,1.49s3.06-1.18,2.52-3.2a8.55,8.55,0,0,1-.52-2.66c0-1.34.47-2.76-.45-3.94-.39-.49.3-1.18.69-.69a3.54,3.54,0,0,1,.73,1.6,4.11,4.11,0,0,1,1.26-.11.5.5,0,0,1,.49.49.5.5,0,0,1-.49.49,3.26,3.26,0,0,0-1.12.1h-.05c0,.74-.1,1.52-.09,2.35,0,1.74,1.4,3.21.27,4.86l-.17.22.09.07c.86.74,2.19,2.13,3.4.75a6.92,6.92,0,0,0,.88-2.54c.32-1.22,2-5.52-.59-5.59-.63,0-.63-1,0-1a2.11,2.11,0,0,1,2.2,1.39,2.29,2.29,0,0,1,1.53-.61.49.49,0,0,1,0,1,1.34,1.34,0,0,0-1,.46.4.4,0,0,1-.37.15,17.5,17.5,0,0,1-.91,4.74c-.12.45-.26,1-.46,1.54a.53.53,0,0,1,.52.47,2,2,0,0,0,.13.53.56.56,0,0,1,.09.19c.89,1.59,4.12,0,5.53.08,1.11.09,1.4.67,2-.93a11.67,11.67,0,0,0,.73-4.33c-.09-2.23-1.54-2.75-3.41-3.07-.63-.11-.36-1.06.26-1A5.14,5.14,0,0,1,89,174.5a5.13,5.13,0,0,1,2.31-1.37.49.49,0,0,1,.26,1,4.26,4.26,0,0,0-2.13,1.39,1.09,1.09,0,0,1,.05.17,10.58,10.58,0,0,1-.34,4.88l.1,0c1,.66,2,.4,3,.25.71-.1,1.46.1,2.15,0,1.89-.25,2-2.2,2.07-3.57a6.3,6.3,0,0,0-.07-1.68l-.31-.83-1.61-.65c-.62.15-.88-.8-.26-.95a2.13,2.13,0,0,1,2.49.8,5.8,5.8,0,0,1,2.68-2.57c.57-.27,1.06.58.49.84a4.9,4.9,0,0,0-2.53,2.65.43.43,0,0,1-.14.2,9.19,9.19,0,0,1,.06,3.87,4.32,4.32,0,0,1,.6.11,5,5,0,0,0,2-.35c.77-.19,1.71-.53,1.76-1.47a.48.48,0,0,1,.47-.47l.08-.21s.8-3.86-.34-4.54S100,157.6,100,157.6c0-.34,2.5-8.52,8-7.27a40.55,40.55,0,0,1,8.74,2.95l3.51.34s-2.27,10.33-2.38,12.94-7.6,12.48-11.46,13.28a7.39,7.39,0,0,1-4.42-.14c.48,1.71.61,4-1,5-.53.34-1-.51-.49-.85,1.33-.85.84-3.1.4-4.38a18.1,18.1,0,0,1-2,.51c-.08,0-1.47.29-1.25-.24a.54.54,0,0,1-.52.32,2.29,2.29,0,0,1-1.55,1.58,17.16,17.16,0,0,0,.15,3.2c0,.26.06.51.1.76l1,.55a2.41,2.41,0,0,0,.71-.25c.43-.16.86-.35,1.29-.52s.84.71.26,1c-1.1.44-2.91,1.5-3.88.25a3.89,3.89,0,0,1-.48-1.93,18.13,18.13,0,0,1-.13-2.85.52.52,0,0,1-.21.11c-.26.05-.52.11-.78.15a6.13,6.13,0,0,0-.61.18,13.66,13.66,0,0,1-1.31.57,1.62,1.62,0,0,1-.71-.09,10.31,10.31,0,0,1-.62,2.55c-.2.65-.41,1.35-.66,2a.48.48,0,0,1,.11.09c1.54,1.73,3.41.55,4.81-.68.47-.41,1.17.28.69.7-1.74,1.53-4.11,2.76-6,.87a6.38,6.38,0,0,1-.71,1.22c-1.5,2-3.75,1.61-5.25,0l-.06.07c-1.26,1.12-3.34.36-4.54-.43-.53-.34,0-1.19.49-.84a4.42,4.42,0,0,0,2.39.83c1,0,1.36-1,1.64-1.83l1.41-4.17c-.53.14-1.06.32-1.5.4a3.85,3.85,0,0,1-2.89-.52c-.41,1.24-1.07,2.36-1.6,3.57-.39.91-.44,2.28-1.47,2.73a4.91,4.91,0,0,1-3.37-.35,1.65,1.65,0,0,1-.83-.91,2.73,2.73,0,0,1-.09-.48,3.1,3.1,0,0,1-1,1.84c-1.91,1.39-4.13-.89-5.29-2.55-.34,1-.74,1.64-1.86,1.77a13.89,13.89,0,0,0-2.8.39,1.29,1.29,0,0,1-1.41-.11,3.32,3.32,0,0,1-1-1.32,5,5,0,0,1-.22-.95c-.06.17-.13.34-.2.5-.6,1.45-1.3,2.29-3,2.41-2.5.19-3.18-2.31-3.28-4.8-.23,1.63-.91,3-2.88,3.3-1.2.17-1.8-.43-2.32-1.45-.11-.22-.21-.44-.31-.66h0l-.13,0a1,1,0,0,1-.3,0l-.39,0h0l-.62,1.61a.49.49,0,0,1-.6.34,8.65,8.65,0,0,1-3.73-2.08l0,.06a2.31,2.31,0,0,1-1.87,1,8.49,8.49,0,0,1-2.6-1.23,3,3,0,0,1-.35-.22l0,.1c-1.05,1.61-2.82,1.39-4.21.23h0a3.39,3.39,0,0,1-2.12.36,3.6,3.6,0,0,1-2.05-1.73c-.37-.52.49-1,.84-.49a3.36,3.36,0,0,0,1.1,1.15,1.46,1.46,0,0,0,.92.1l.63-.15c-1.11-1.58-1.32-4-1.74-5.72A.47.47,0,0,1,30,179a3.86,3.86,0,0,1-.67-.67,5,5,0,0,1-.83-2.63,3.26,3.26,0,0,1-1.2,1.19l.43,6.24-2.5,22.24c-.63,2.41-2.86,11.94,2,16.57,1.92,1.82,5.32,2.52,12,3.86,5,1,8.75,1.42,10.21,1.59,11.75,1.38,12.79,2.79,20.43,3.63,4.58.51,15,1.75,26.78-2.2,6.83-2.29,11.36-5.63,16.57-8.24A42.4,42.4,0,0,0,128.68,207s6.8-16.79,9.3-24.74a144.73,144.73,0,0,1,6.81-16.79s3.86-2.05,5.67-.46,6.13,3.18,6.13,3.18c13.42-15,17-21.9,17.48-25.42.05-.37.46-3.35,1.13-7.49,0,0,.54-3.32,1.14-6.58,1.62-8.89,7-27.19,8.85-37.91C186.55,83,188.68,70.93,184.74,57.84ZM22.91,118c-4.43-3.74-3.52-7.15-3.52-7.15l2-10.47a2.31,2.31,0,0,0,0-.64c-.09-1.38-.55-6.58-2.25-8.35a2.29,2.29,0,0,1-.55-1C18,88.1,16.7,81.11,23.7,80c8.4-1.36,14.19-4.08,19.52,3.07,3.12,4.18,4.53,6.11,5.17,7a2.56,2.56,0,0,1,.47,1.58L48.5,99a2.5,2.5,0,0,1-1.06,1.93l-4.88,3.43a3.2,3.2,0,0,0-.47.43,33.66,33.66,0,0,0-5.41,9.78,2.47,2.47,0,0,1-1,1.23C33.44,117.19,26.58,121.09,22.91,118ZM57.6,168.54a4.31,4.31,0,0,0-2.59-.35c-.77,0-1.27.52-2,.67s-.87-.81-.26-.94a13.07,13.07,0,0,0,1.38-.6,4.39,4.39,0,0,1,1.25-.12,4.53,4.53,0,0,1,2.72.49C58.61,168.05,58.12,168.9,57.6,168.54Zm-1.44-20.7c-4.08,2.15-7.38-1.93-7.38-1.93S47,142.73,47,143.75s-2.84,1.36-2.84,1.36-2,1.36-6.47-4,.34-22.81.34-22.81,3-11.46,7.15-13.5,9.65,9.08,9.76,10.44c.08,1,3.68,8.41,5.66,12.42a12.72,12.72,0,0,1,1.29,5.45l.09,9.48A14.84,14.84,0,0,1,56.16,147.84Zm7.15,21.6a2.81,2.81,0,0,1-1.16-.33,2.69,2.69,0,0,0-1.49,0c-.61.12-.87-.82-.26-1a4.62,4.62,0,0,1,1.48-.09c.48.06,1,.44,1.43.42C63.94,168.42,63.94,169.4,63.31,169.44Zm54.47-59.73a20.61,20.61,0,0,1-13.28,16c-4.31,1.7-18-.46-21.9-2.16s-10.89-9-12-11.12.23-11.58.23-11.58S70.69,93,74.43,87.12,91.11,84.29,97.92,85s16.34,9.53,16.34,9.53S119.82,99.38,117.78,109.71ZM137,159.64s-4.77,3.29-8.4,1.81-1.7-10.44-1.7-10.44l10.55-6.69s5.45,1.81,6.13,3.52S137,159.64,137,159.64Z" transform="translate(-9.96 -4.94)"/>
      <path class="cls-1" d="M49.45,179.21l-.12,0a2.2,2.2,0,0,0-1.43.11,2.4,2.4,0,0,1-.5,1,2,2,0,0,1-1,.6.43.43,0,0,1,.2.27c.34,1.09.71,2.17,1.14,3.22s.74,2.72,2.18,2.64c2.55-.13,2-4.46,2-6.24A3.83,3.83,0,0,1,49.45,179.21Z" transform="translate(-9.96 -4.94)"/>
      <path class="cls-1" d="M52.89,181.28l0-.32h0Z" transform="translate(-9.96 -4.94)"/>
    </g>
  </g>
</svg>
